# xmcd
#
# Track frame offsets:
#   150
#   21098
#   43843
#   58235
#   76058
#   90005
#   106490
#   122650
#   137608
#   155625
#   173625
#   192303
#   208403
#   223235
#
# Disc length: 3169 seconds
#
# Revision: 0
# Processed by: cddbd v1.5PL3 Copyright (c) Steve Scherf et al.
# Submitted via: uFREEDB 1.6.0
#
DISCID=c30c5f0e
DTITLE=Oscar Harris - The very best of
DYEAR=1900
DGENRE=R and B
TTITLE0=Try a little love
TTITLE1=Bridge over troubled water
TTITLE2=Morning has broken
TTITLE3=Don't leave Me now
TTITLE4=Two hearts
TTITLE5=You need Me
TTITLE6=With You i'm born again
TTITLE7=You're more than a number in my little red book
TTITLE8=The Last farewell
TTITLE9=Alta gracia
TTITLE10=I just can't help believing
TTITLE11=Without You
TTITLE12=Calypso
TTITLE13=Green green grass of Home
EXTD=
EXTT0=
EXTT1=
EXTT2=
EXTT3=
EXTT4=
EXTT5=
EXTT6=
EXTT7=
EXTT8=
EXTT9=
EXTT10=
EXTT11=
EXTT12=
EXTT13=
PLAYORDER=
